<svg xmlns="http://www.w3.org/2000/svg" version="1.1" xmlns:xlink="http://www.w3.org/1999/xlink" xmlns:svgjs="http://svgjs.dev/svgjs" width="1440" height="560" preserveAspectRatio="none" viewBox="0 0 1440 560"><g clip-path="url(&quot;#SvgjsClipPath1000&quot;)" fill="none"><rect width="1440" height="560" x="0" y="0" fill="#0e2a47"></rect><path d="M31.4 390.52C49.8 390 67.81 384.54 81.16 371.87 94.87 358.86 103.99 341 103.47 322.11 102.96 303.65 91.74 287.89 78.5 275.01 65.48 262.35 49.53 253.09 31.4 252 12.11 250.84-8.53 254.86-21.74 268.97-34.67 282.78-34.3 303.19-34.21 322.11-34.12 340.9-34.27 361.21-21.26 374.77-8.07 388.52 12.36 391.06 31.4 390.52" fill="#488fdb" stroke="none"></path><path d="M48.4 406.52C66.8 406 84.81 400.54 98.16 387.87 111.87 374.86 120.99 357 120.47 338.11 119.96 319.65 108.74 303.89 95.5 291.01 82.48 278.35 66.53 269.09 48.4 268 29.11 266.84 8.47 270.86-4.74 284.97-17.67 298.78-17.3 319.19-17.21 338.11-17.12 356.9-17.27 377.21-4.26 390.77 8.93 404.52 29.36 407.06 48.4 406.52" fill="none" stroke-width="2" stroke="#2164aa"></path><path d="M919.09 514.87C942.48 512.89 959.14 494.26 975.58 477.51 991.8 460.99 1009.76 444.12 1011.25 421.02 1012.81 396.79 1001.27 373.15 983.38 356.73 966.17 340.94 942.44 335.87 919.09 336.44 896.39 336.99 874.28 344.1 857.84 359.77 841.01 375.82 831.41 397.78 830.38 421.02 829.3 445.39 835.41 470.22 852.16 487.95 869.33 506.12 894.18 516.98 919.09 514.87" fill="#488fdb" stroke="none"></path><path d="M926.09 522.87C949.48 520.89 966.14 502.26 982.58 485.51 998.8 468.99 1016.76 452.12 1018.25 429.02 1019.81 404.79 1008.27 381.15 990.38 364.73 973.17 348.94 949.44 343.87 926.09 344.44 903.39 344.99 881.28 352.1 864.84 367.77 848.01 383.82 838.41 405.78 837.38 429.02 836.3 453.39 842.41 478.22 859.16 495.95 876.33 514.12 901.18 524.98 926.09 522.87" fill="none" stroke-width="2" stroke="#2164aa"></path><path d="M645.71 418.39C654.7 417.37 662.49 413.2 669.33 407.27 676.86 400.74 685.27 393.61 685.76 383.65 686.26 373.41 679.05 364.81 671.76 357.6 664.53 350.45 655.87 343.55 645.71 344.05 635.84 344.53 628.94 352.91 622.1 360.04 615.48 366.95 608.83 374.14 607.75 383.65 606.55 394.25 608.21 406.08 616.08 413.28 623.77 420.32 635.36 419.56 645.71 418.39" fill="#2774c6" stroke="none"></path><path d="M635.71 413.39C644.7 412.37 652.49 408.2 659.33 402.27 666.86 395.74 675.27 388.61 675.76 378.65 676.26 368.41 669.05 359.81 661.76 352.6 654.53 345.45 645.87 338.55 635.71 339.05 625.84 339.53 618.94 347.91 612.1 355.04 605.48 361.95 598.83 369.14 597.75 378.65 596.55 389.25 598.21 401.08 606.08 408.28 613.77 415.32 625.36 414.56 635.71 413.39" fill="none" stroke-width="2" stroke="#1b518b"></path><path d="M1120.08 282.19C1149.07 281.32 1166.06 251.8 1186.28 231.01 1206.04 210.7 1233.41 193.14 1234.28 164.81 1235.16 136.09 1211.99 113.46 1190.47 94.42 1170.55 76.79 1146.61 65.64 1120.08 63.78 1091.23 61.76 1060.54 64.42 1039.07 83.8 1016.76 103.94 1006.04 134.84 1008.16 164.81 1010.16 193.05 1030.25 214.61 1049.79 235.1 1070.02 256.32 1090.77 283.07 1120.08 282.19" fill="#2774c6" stroke="none"></path><path d="M1103.08 277.19C1132.07 276.32 1149.06 246.8 1169.28 226.01 1189.04 205.7 1216.41 188.14 1217.28 159.81 1218.16 131.09 1194.99 108.46 1173.47 89.42 1153.55 71.79 1129.61 60.64 1103.08 58.78 1074.23 56.76 1043.54 59.42 1022.07 78.8 999.76 98.94 989.04 129.84 991.16 159.81 993.16 188.05 1013.25 209.61 1032.79 230.1 1053.02 251.32 1073.77 278.07 1103.08 277.19" fill="none" stroke-width="2" stroke="#1b518b"></path><path d="M667.8 183.25C691.22 182.73 712.99 171.67 729.02 154.58 744.53 138.04 752.77 116.02 752.08 93.36 751.41 71.37 740.12 52.11 725.41 35.75 709.65 18.22 691.23 2.14 667.8-0.39 641.99-3.18 614.92 3.78 596.25 21.81 577.31 40.1 569.26 67.07 570.72 93.36 572.1 118.29 585.46 140.42 603.78 157.38 621.34 173.64 643.88 183.79 667.8 183.25" fill="#fd3f3f" stroke="none"></path><path d="M660.8 194.25C684.22 193.73 705.99 182.67 722.02 165.58 737.53 149.04 745.77 127.02 745.08 104.36 744.41 82.37 733.12 63.11 718.41 46.75 702.65 29.22 684.23 13.14 660.8 10.61 634.99 7.82 607.92 14.78 589.25 32.81 570.31 51.1 562.26 78.07 563.72 104.36 565.1 129.29 578.46 151.42 596.78 168.38 614.34 184.64 636.88 194.79 660.8 194.25" fill="none" stroke-width="2" stroke="#db0202"></path><path d="M1417.04 140.27C1437.27 141.76 1458.37 135.25 1472.04 120.27 1485.27 105.78 1485.29 84.89 1485.49 65.27 1485.69 45.35 1486.74 23.72 1473.18 9.13 1459.31-5.79 1437.39-9.18 1417.04-8.35 1397.59-7.56 1378.68-0.62 1365.28 13.51 1352.21 27.3 1346.4 46.29 1347.22 65.27 1348.01 83.43 1357.18 99.43 1369.57 112.74 1382.52 126.65 1398.08 138.88 1417.04 140.27" fill="#ff9500" stroke="none"></path><path d="M1427.04 149.27C1447.27 150.76 1468.37 144.25 1482.04 129.27 1495.27 114.78 1495.29 93.89 1495.49 74.27 1495.69 54.35 1496.74 32.72 1483.18 18.13 1469.31 3.21 1447.39-0.18 1427.04 0.65 1407.59 1.44 1388.68 8.38 1375.28 22.51 1362.21 36.3 1356.4 55.29 1357.22 74.27 1358.01 92.43 1367.18 108.43 1379.57 121.74 1392.52 135.65 1408.08 147.88 1427.04 149.27" fill="none" stroke-width="2" stroke="#b36800"></path><path d="M1371.61 426.32C1384.9 425.39 1396.87 419.47 1406.59 410.36 1416.69 400.89 1425.68 389.23 1425.94 375.38 1426.21 361.33 1418.17 348.68 1407.95 339.04 1398.05 329.69 1385.23 324.29 1371.61 324.09 1357.78 323.88 1344.47 328.71 1334.16 337.93 1323.2 347.73 1314.79 360.69 1314.26 375.38 1313.71 390.53 1320.01 405.58 1331.34 415.65 1342.13 425.23 1357.22 427.33 1371.61 426.32" fill="#54c076" stroke="none"></path><path d="M1390.61 433.32C1403.9 432.39 1415.87 426.47 1425.59 417.36 1435.69 407.89 1444.68 396.23 1444.94 382.38 1445.21 368.33 1437.17 355.68 1426.95 346.04 1417.05 336.69 1404.23 331.29 1390.61 331.09 1376.78 330.88 1363.47 335.71 1353.16 344.93 1342.2 354.73 1333.79 367.69 1333.26 382.38 1332.71 397.53 1339.01 412.58 1350.34 422.65 1361.13 432.23 1376.22 434.33 1390.61 433.32" fill="none" stroke-width="2" stroke="#348d50"></path><path d="M421.96 521C432.96 522.23 445.45 521.29 452.92 513.12 460.24 505.12 457.91 492.99 457.47 482.16 457.06 471.98 457.75 460.78 450.52 453.6 443.31 446.43 432.11 446.27 421.96 446.87 412.54 447.43 403.84 450.75 396.58 456.78 388.42 463.56 379.34 471.55 379.47 482.16 379.6 492.71 389.42 499.79 397.21 506.91 404.5 513.57 412.15 519.91 421.96 521" fill="#54c076" stroke="none"></path><path d="M412.96 536C423.96 537.23 436.45 536.29 443.92 528.12 451.24 520.12 448.91 507.99 448.47 497.16 448.06 486.98 448.75 475.78 441.52 468.6 434.31 461.43 423.11 461.27 412.96 461.87 403.54 462.43 394.84 465.75 387.58 471.78 379.42 478.56 370.34 486.55 370.47 497.16 370.6 507.71 380.42 514.79 388.21 521.91 395.5 528.57 403.15 534.91 412.96 536" fill="none" stroke-width="2" stroke="#348d50"></path></g><defs><clipPath id="SvgjsClipPath1000"><rect width="1440" height="560" x="0" y="0"></rect></clipPath></defs></svg>